<?xml version="1.0" encoding="UTF-8" standalone="no"?>
<!DOCTYPE svg PUBLIC "-//W3C//DTD SVG 1.1//EN" "http://www.w3.org/Graphics/SVG/1.1/DTD/svg11.dtd">
<svg width="100" height="99" viewBox="0 0 126 176" version="1.1" xmlns="http://www.w3.org/2000/svg" xmlns:xlink="http://www.w3.org/1999/xlink" xml:space="preserve" xmlns:serif="http://www.serif.com/" style="fill-rule:evenodd;clip-rule:evenodd;stroke-linecap:round;stroke-miterlimit:10;">
    <g transform="matrix(0,-1,-1,0,44.323,99.374)">
        <path d="M-19.198,19.198L19.198,19.198" style="fill:none;fill-rule:nonzero;stroke:rgb(76,81,191);stroke-width:5px;"/>
    </g>
    <g transform="matrix(1,0,0,1,63.4673,80.1763)">
        <path d="M0,-16.995L-21.347,-16.995C-30.733,-16.995 -38.342,-9.387 -38.342,0" style="fill:none;fill-rule:nonzero;stroke:rgb(76,81,191);stroke-width:5px;"/>
    </g>
    <g transform="matrix(1,0,0,1,64.5737,54.4277)">
        <path d="M0,-29.303L-22.454,-29.303C-31.84,-29.303 -39.449,-21.694 -39.449,-12.308L-39.449,0" style="fill:none;fill-rule:nonzero;stroke:rgb(76,81,191);stroke-width:5px;"/>
    </g>
    <g transform="matrix(1,0,0,1,83.0552,84.3667)">
        <path d="M0,-59.242C9.386,-59.242 16.995,-51.633 16.995,-42.247L16.995,0" style="fill:none;fill-rule:nonzero;stroke:rgb(76,81,191);stroke-width:5px;"/>
    </g>
    <g transform="matrix(1,0,0,1,60.6011,133.288)">
        <path d="M0,16.995L22.454,16.995C31.84,16.995 39.449,9.387 39.449,0" style="fill:none;fill-rule:nonzero;stroke:rgb(76,81,191);stroke-width:5px;"/>
    </g>
    <g transform="matrix(1,0,0,1,70.8442,86.8609)">
        <path d="M0,63.422L-28.724,63.422C-38.11,63.422 -45.719,55.814 -45.719,46.427L-45.719,0" style="fill:none;fill-rule:nonzero;stroke:rgb(76,81,191);stroke-width:5px;"/>
    </g>
    <g transform="matrix(0,1,1,0,61.4774,114.708)">
        <path d="M-18.58,-18.58L18.58,-18.58" style="fill:none;fill-rule:nonzero;stroke:rgb(76,81,191);stroke-width:5px;"/>
    </g>
    <g transform="matrix(1,0,0,1,42.8979,81.1589)">
        <path d="M0,0L7.968,0" style="fill:none;fill-rule:nonzero;stroke:rgb(76,81,191);stroke-width:5px;"/>
    </g>
    <g transform="matrix(1,0,0,1,42.8979,96.1286)">
        <path d="M0,0L7.968,0" style="fill:none;fill-rule:nonzero;stroke:rgb(76,81,191);stroke-width:5px;"/>
    </g>
    <g transform="matrix(0,1,1,0,82.6653,82.3793)">
        <path d="M-19.198,-19.198L19.198,-19.198" style="fill:none;fill-rule:nonzero;stroke:rgb(76,81,191);stroke-width:5px;"/>
    </g>
    <g transform="matrix(1,0,0,1,100.05,101.577)">
        <path d="M0,16.995L-19.588,16.995C-28.974,16.995 -36.583,9.387 -36.583,0" style="fill:none;fill-rule:nonzero;stroke:rgb(76,81,191);stroke-width:5px;"/>
    </g>
    <g transform="matrix(1,0,0,1,50.8657,61.0816)">
        <path d="M0,-16.995L13.317,-16.995C22.704,-16.995 30.312,-9.386 30.312,0" style="fill:none;fill-rule:nonzero;stroke:rgb(76,81,191);stroke-width:5px;"/>
    </g>
    <g transform="matrix(0,-1,-1,0,99.4842,81.4256)">
        <path d="M-18.244,18.244L18.244,18.244" style="fill:none;fill-rule:nonzero;stroke:rgb(76,81,191);stroke-width:5px;"/>
    </g>
    <g transform="matrix(1,0,0,1,81.2402,100.594)">
        <path d="M0,0L18.81,0" style="fill:none;fill-rule:nonzero;stroke:rgb(76,81,191);stroke-width:5px;"/>
    </g>
</svg>
